<svg xmlns="http://www.w3.org/2000/svg" viewBox="0 0 58 58">
    <defs>
        <style>
            .cls-1{fill:#00b900}.cls-2{fill:#fff}
        </style>
    </defs>
    <g id="그룹_185" data-name="그룹 185" transform="translate(-570 -181)">
        <circle id="타원_8" cx="29" cy="29" r="29" class="cls-1" data-name="타원 8" transform="translate(570 181)"/>
        <g id="g7930_1_" transform="translate(569.596 180.923)">
            <g id="g7962_1_" transform="translate(11.404 13.631)">
                <path id="path7964_1_" d="M-469.534-312.342c0-8.163-8.183-14.805-18.243-14.805s-18.243 6.642-18.243 14.805c0 7.319 6.49 13.445 15.255 14.606.593.129 1.4.392 1.606.9a3.739 3.739 0 0 1 .059 1.651s-.213 1.287-.26 1.561c-.078.462-.366 1.8 1.581.985s10.505-6.186 14.332-10.592c2.647-2.9 3.914-5.847 3.914-9.112" class="cls-2" transform="translate(506.021 327.147)"/>
            </g>
            <g id="g7966_1_" transform="translate(24.308 24.492)">
                <path id="path7968_1_" d="M-323.2-281.322h-1.279a.356.356 0 0 0-.355.355v7.948a.356.356 0 0 0 .355.355h1.279a.356.356 0 0 0 .355-.355v-7.948a.354.354 0 0 0-.355-.355" class="cls-1" transform="translate(324.834 281.322)"/>
            </g>
            <g id="g7970_1_" transform="translate(27.541 24.492)">
                <path id="path7972_1_" d="M-340.307-281.322h-1.279a.356.356 0 0 0-.355.355v4.722l-3.642-4.918a.32.32 0 0 0-.028-.036.168.168 0 0 0-.022-.022l-.006-.006a.124.124 0 0 0-.02-.017l-.008-.008c-.006 0-.011-.008-.02-.014a.015.015 0 0 0-.011-.006l-.02-.011s-.008 0-.011-.006l-.02-.008a.017.017 0 0 0-.011 0 .066.066 0 0 0-.022-.006.017.017 0 0 0-.011 0c-.006 0-.014 0-.02-.006a.121.121 0 0 1-.014 0h-1.329a.356.356 0 0 0-.355.355v7.948a.356.356 0 0 0 .355.355h1.279a.356.356 0 0 0 .355-.355v-4.722l3.648 4.927a.329.329 0 0 0 .09.087l.022.014s.006 0 .011.006l.017.008.017.008h.011l.025.008h.006a.316.316 0 0 0 .09.011h1.279a.356.356 0 0 0 .355-.355v-7.948a.352.352 0 0 0-.355-.353" class="cls-1" transform="translate(347.514 281.322)"/>
            </g>
            <g id="g7974_1_" transform="translate(17.39 24.493)">
                <path id="path7976_1_" d="M-345.841-242.924h-3.477v-6.311a.356.356 0 0 0-.355-.355h-1.279a.356.356 0 0 0-.355.355v7.948a.367.367 0 0 0 .1.246l.006.006.006.006a.354.354 0 0 0 .246.1h5.111a.356.356 0 0 0 .355-.355v-1.279a.355.355 0 0 0-.355-.358" class="cls-1" transform="translate(351.308 249.591)"/>
            </g>
            <g id="g7978_1_" transform="translate(36.352 24.491)">
                <path id="path7980_1_" d="M-323.264-269.865a.356.356 0 0 0 .355-.355v-1.28a.356.356 0 0 0-.355-.355h-5.111a.357.357 0 0 0-.246.1l-.006.006a.349.349 0 0 0-.1.246v7.948a.356.356 0 0 0 .1.246l.006.006.006.006a.354.354 0 0 0 .246.1h5.111a.356.356 0 0 0 .355-.355v-1.281a.356.356 0 0 0-.355-.355h-3.477v-1.343h3.477a.356.356 0 0 0 .355-.355v-1.279a.356.356 0 0 0-.355-.355h-3.477v-1.343h3.472z" class="cls-1" transform="translate(328.728 271.855)"/>
            </g>
        </g>
    </g>
</svg>
