<svg xmlns="http://www.w3.org/2000/svg" viewBox="0 0 58 58">
    <defs>
        <style>
            .cls-1{fill:#3b579d}.cls-2{fill:#fff}
        </style>
    </defs>
    <g id="그룹_184" data-name="그룹 184" transform="translate(-496 -181)">
        <path id="패스_32" d="M29 0A29 29 0 1 1 0 29 29 29 0 0 1 29 0z" class="cls-1" data-name="패스 32" transform="translate(496 181)"/>
        <path id="패스_31" d="M4.249 27.643c0-.073.01-.147.01-.22V15.198c0-.049-.005-.1-.009-.162H.225C0 15.035 0 15.035 0 14.8v-4.473c0-.227 0-.227.219-.227h4.033c0-.065.009-.12.009-.174 0-1.26 0-2.521.01-3.781A6.809 6.809 0 0 1 5 3.073 5.435 5.435 0 0 1 8.759.2a11.623 11.623 0 0 1 3.169-.186c.66.023 1.319.074 1.979.114.084.005.168.017.252.028.242.03.242.031.242.28v3.968c0 .161-.04.213-.206.211-.78-.008-1.56-.012-2.34 0a6.284 6.284 0 0 0-.994.083A1.627 1.627 0 0 0 9.45 6.155a5.135 5.135 0 0 0-.066.741c-.007 1.017 0 2.035 0 3.052a1 1 0 0 0 .009.153H14c.238 0 .237 0 .207.236-.2 1.506-.392 3.012-.582 4.518-.018.146-.071.183-.213.183-1.272-.005-2.543 0-3.815 0H9.38v12.371c0 .079-.006.158-.009.236z" class="cls-2" data-name="패스 31" transform="translate(518.182 196.987)"/>
    </g>
</svg>
