<svg xmlns="http://www.w3.org/2000/svg" viewBox="0 0 58 58">
    <defs>
        <style>
            .cls-1{fill:#fae100}.cls-2{fill:#381e1f}.cls-3{clip-path:url(#clip-path)}.cls-4{clip-path:url(#clip-path-2)}.cls-5{clip-path:url(#clip-path-3)}.cls-6{clip-path:url(#clip-path-4)}
        </style>
        <clipPath id="clip-path">
            <path id="패스_23" d="M15.481 26.04c-1.128 0-1.128 1.978 0 1.978h1.925s.013 5.356 0 6.59c0 .9 2 .942 2 .046l.007-6.444a10.1 10.1 0 0 1 1.918-.139c1.195 0 1.2-2.024 0-2.024h-5.85z" data-name="패스 23" transform="translate(-14.635 -26.04)"/>
        </clipPath>
        <clipPath id="clip-path-2">
            <path id="패스_25" d="M28.124 28.66l1.069 3.358h-2.23zm-1.2-1.573c-.478 1.042-2.183 5.966-2.754 7.274-.411.942 1.361 1.712 1.772.77l.385-1.347h3.523s-.119.053.345 1.288c.378 1 2.21.305 1.825-.69-.538-1.427-2.409-6.57-2.754-7.294A1.455 1.455 0 0 0 28 26.51a1.114 1.114 0 0 0-1.075.577" data-name="패스 25" transform="translate(-24.107 -26.51)"/>
        </clipPath>
        <clipPath id="clip-path-3">
            <path id="패스_27" d="M37.169 27.393c0 1.672.007 7.068.007 7.068s-.153 1.075.763 1.075 2.96-.007 3.863-.007.9-1.925-.007-1.925-2.555-.007-2.555-.007.007-4.991.007-6.205a1.052 1.052 0 0 0-2.077 0" data-name="패스 27" transform="translate(-37.166 -26.51)"/>
        </clipPath>
        <clipPath id="clip-path-4">
            <path id="패스_29" d="M46 27.133c.02.737-.027 7.373-.027 7.865 0 .776 1.978.77 1.978 0v-2.609l.584-.465 2.542 3.464c.511.677 2.124-.544 1.613-1.221l-2.695-3.551s1.832-1.978 2.549-2.695c.418-.418-.883-1.732-1.3-1.314l-3.272 3.272s.027-1.8 0-2.794c-.013-.378-.471-.557-.949-.557-.511-.013-1.035.2-1.022.6" data-name="패스 29" transform="translate(-45.97 -26.528)"/>
        </clipPath>
    </defs>
    <g id="그룹_183" data-name="그룹 183" transform="translate(-422 -181)">
        <circle id="타원_6" cx="29" cy="29" r="29" class="cls-1" data-name="타원 6" transform="translate(422 181)"/>
        <g id="그룹_153" data-name="그룹 153" transform="translate(-1252.6 -645.402)">
            <path id="패스_21" d="M26.07 11.04c-10.2 0-18.47 6.537-18.47 14.6 0 5.25 3.5 9.849 8.76 12.424-.385 1.44-1.4 5.223-1.6 6.033-.252 1 .372.989.776.723.319-.212 5.064-3.438 7.108-4.832a23.192 23.192 0 0 0 3.431.252c10.2 0 18.47-6.537 18.47-14.6s-8.276-14.6-18.477-14.6" class="cls-2" data-name="패스 21" transform="translate(1678 829)"/>
            <g id="그룹_151" data-name="그룹 151" transform="translate(1690.269 849.995)">
                <g id="그룹_135" data-name="그룹 135">
                    <g id="그룹_133" data-name="그룹 133">
                        <path id="패스_22" d="M15.481 26.04c-1.128 0-1.128 1.978 0 1.978h1.925s.013 5.356 0 6.59c0 .9 2 .942 2 .046l.007-6.444a10.1 10.1 0 0 1 1.918-.139c1.195 0 1.2-2.024 0-2.024h-5.85z" class="cls-1" data-name="패스 22" transform="translate(-14.635 -26.04)"/>
                        <g id="그룹_132" class="cls-3" data-name="그룹 132">
                            <path id="사각형_71" d="M0 0h8.183v9.51H0z" class="cls-1" data-name="사각형 71" transform="translate(-.282)"/>
                        </g>
                    </g>
                </g>
                <g id="그룹_140" data-name="그룹 140" transform="translate(6.287 .312)">
                    <g id="그룹_138" data-name="그룹 138">
                        <path id="패스_24" d="M28.124 28.66l1.069 3.358h-2.23zm-1.2-1.573c-.478 1.042-2.183 5.966-2.754 7.274-.411.942 1.361 1.712 1.772.77l.385-1.347h3.523s-.119.053.345 1.288c.378 1 2.21.305 1.825-.69-.538-1.427-2.409-6.57-2.754-7.294A1.455 1.455 0 0 0 28 26.51a1.114 1.114 0 0 0-1.075.577" class="cls-1" data-name="패스 24" transform="translate(-24.107 -26.51)"/>
                        <g id="그룹_137" class="cls-4" data-name="그룹 137">
                            <path id="사각형_72" d="M0 0h8.641v9.57H0z" class="cls-1" data-name="사각형 72" transform="translate(-.35)"/>
                        </g>
                    </g>
                </g>
                <g id="그룹_145" data-name="그룹 145" transform="translate(14.953 .312)">
                    <g id="그룹_143" data-name="그룹 143">
                        <path id="패스_26" d="M37.169 27.393c0 1.672.007 7.068.007 7.068s-.153 1.075.763 1.075 2.96-.007 3.863-.007.9-1.925-.007-1.925-2.555-.007-2.555-.007.007-4.991.007-6.205a1.052 1.052 0 0 0-2.077 0" class="cls-1" data-name="패스 26" transform="translate(-37.166 -26.51)"/>
                        <g id="그룹_142" class="cls-5" data-name="그룹 142">
                            <path id="사각형_73" d="M0 0h5.688v9.026H0z" class="cls-1" data-name="사각형 73" transform="translate(-.143 -.007)"/>
                        </g>
                    </g>
                </g>
                <g id="그룹_150" data-name="그룹 150" transform="translate(20.796 .324)">
                    <g id="그룹_148" data-name="그룹 148">
                        <path id="패스_28" d="M46 27.133c.02.737-.027 7.373-.027 7.865 0 .776 1.978.77 1.978 0v-2.609l.584-.465 2.542 3.464c.511.677 2.124-.544 1.613-1.221l-2.695-3.551s1.832-1.978 2.549-2.695c.418-.418-.883-1.732-1.3-1.314l-3.272 3.272s.027-1.8 0-2.794c-.013-.378-.471-.557-.949-.557-.511-.013-1.035.2-1.022.6" class="cls-1" data-name="패스 28" transform="translate(-45.97 -26.528)"/>
                        <g id="그룹_147" class="cls-6" data-name="그룹 147">
                            <path id="사각형_74" d="M0 0h7.221v9.875H0z" class="cls-1" data-name="사각형 74" transform="translate(0 -.344)"/>
                        </g>
                    </g>
                </g>
            </g>
        </g>
    </g>
</svg>
